{"title":"The Crimson Pirate (RETAIL) (1952) (NL SUBS) Hornigold TBS","uid":6030199,"size":4235556810,"categoryP":"video","categoryS":"movies_dvdr","magnet":"?xt=urn:btih:d258b2a2392b2b2e4b1b2335a2147f82189f390a&amp;dn=The+Crimson+Pirate+%28RETAIL%29+%281952%29+%28NL+SUBS%29+Hornigold+TBS&amp;tr=udp%3A%2F%2Ftracker.openbittorrent.com%3A80&amp;tr=udp%3A%2F%2Fopen.demonii.com%3A1337&amp;tr=udp%3A%2F%2Ftracker.coppersurfer.tk%3A6969&amp;tr=udp%3A%2F%2Fexodus.desync.com%3A6969","seeders":2,"leechers":0,"uploader":"de_spijker","files":-1,"time":1292066707,"description":"For English, please scroll down!\n\n************************************************************\nThe Crimson Pirate 1952\n\nVerenigde Staten - 105 minuten. Geregisseerd door Robert Siodmak. Met Burt Lancaster, Nick Cravat en Eva Bartok.\n\nDe piratenkapitein Vallo zwaait de plak over de Carribische wateren. Vandaag neemt hij een militair schip in, met aan boord de afgevaardigde van de koning, baron Grudo. De boot had bestemming Cobra, een eilandje waar de bevolking onder leiding van El Libre in opstand is gekomen. Grudo moet er de rebellenleider gaan uitschakelen. De piraat ruikt een gouden zaak en gooit het op een akkoordje. Hij zal El Libre in de val lokken en uitleveren op voorwaarde dat hij de buitgemaakte wapens aan de rebellen mag verkopen. De vraag is of de piraat zich aan de afspraak zal houden.\n\nTaal: Engels, 1-kanaals\nOndertitelingen: Nederlands.\nCategorie : Beeld \nFormaat : DVD5 \nBron : Retail\nGenre : Avontuur, actie\nWeblink : http://www.imdb.com/title/tt0044517/\n\n************************************************************\nUSA - 105 minutes. Directed by Robert Siodmak. With Burt Lancaster, Nick Cravat &amp; Eva Bartok\n\nBurt Lancaster plays a pirate with a taste for intrigue and acrobatics who involves himself in the goings on of a revolution in the Caribbean in the late 1700s. A light hearted adventure involving prison breaks, an oddball Scientist, sailing ships, naval fights, and tons of swordplay.\n\nLanguage: English, 1 channel.\nSubtitles: Dutch\nCategory : Movie \nFormat : DVD5\nSource : Retail\nGenre : Adventure, action\nWeblink : http://www.imdb.com/title/tt0044517/ \n\n\nVideo and Audio information:\n******************************\nVideo\nID                               : 224 (0xE0)\nFormat                           : MPEG Video\nFormat version                   : Version 2\nFormat profile                   : Main@Main\nFormat settings, BVOP            : Yes\nFormat settings, Matrix          : Default\nDuration                         : 26mn 35s\nBit rate mode                    : Variable\nBit rate                         : 5 083 Kbps\nNominal bit rate                 : 9 616 Kbps\nWidth                            : 720 pixels\nHeight                           : 576 pixels\nDisplay aspect ratio             : 4:3\nFrame rate                       : 24.000 fps\nStandard                         : PAL\nColor space                      : YUV\nChroma subsampling               : 4:2:0\nBit depth                        : 8 bits\nScan type                        : Progressive\nScan order                       : 2:2:2:2:2:2:2:2:2:2:2:3 Pulldown\nBits/(Pixel*Frame)               : 0.511\nStream size                      : 967 MiB (94%)\n\nAudio\nID                               : 128 (0x80)\nFormat                           : AC-3\nFormat/Info                      : Audio Coding 3\nMode extension                   : CM (complete main)\nDuration                         : 26mn 35s\nBit rate mode                    : Constant\nBit rate                         : 192 Kbps\nChannel(s)                       : 1 channel\nChannel positions                : Front: C\nSampling rate                    : 48.0 KHz\nBit depth                        : 16 bits\nStream size                      : 36.5 MiB (4%)\n\n******************************\n\nHornigold TBS","torrent":{"xt":"urn:btih:d258b2a2392b2b2e4b1b2335a2147f82189f390a","amp;dn":"The+Crimson+Pirate+%28RETAIL%29+%281952%29+%28NL+SUBS%29+Hornigold+TBS","amp;tr":["udp%3A%2F%2Ftracker.openbittorrent.com%3A80","udp%3A%2F%2Fopen.demonii.com%3A1337","udp%3A%2F%2Ftracker.coppersurfer.tk%3A6969","udp%3A%2F%2Fexodus.desync.com%3A6969"],"infoHash":"d258b2a2392b2b2e4b1b2335a2147f82189f390a","infoHashBuffer":{"type":"Buffer","data":[210,88,178,162,57,43,43,46,75,27,35,53,162,20,127,130,24,159,57,10]},"announce":[],"urlList":[]}}